<?xml version="1.0" encoding="UTF-8"?>
<svg width="25px" height="22px" viewBox="0 0 25 22" version="1.1" xmlns="http://www.w3.org/2000/svg" xmlns:xlink="http://www.w3.org/1999/xlink">
    <!-- Generator: Sketch 49 (51002) - http://www.bohemiancoding.com/sketch -->
    <title>Group 10</title>
    <desc>Created with Sketch.</desc>
    <defs></defs>
    <g id="Page-1" stroke="none" stroke-width="1" fill="none" fill-rule="evenodd">
        <g id="00-Search---02" transform="translate(-908.000000, -329.000000)" stroke="#657786">
            <g id="Group-4" transform="translate(901.000000, 325.000000)">
                <g id="Group-10" transform="translate(4.000000, 0.000000)">
                    <path d="M9.58343576,25.4711815 C9.58346841,25.4652018 9.62669021,25.5005591 9.71864747,25.4999846 C9.75812971,25.4999846 9.79498056,25.489957 9.78866157,25.4956442 L9.84612781,25.4569085 L13.704388,22.3443304 C13.761889,22.2976209 13.8192019,22.2576081 13.9005518,22.205658 C14.2616646,21.9830248 14.7169289,21.8637386 15.434142,21.8637386 L23.2382116,21.8637386 C25.491285,21.8637386 27.2860149,20.3680867 27.2860149,18.5728367 L27.2860149,7.79016893 C27.2860149,5.99601842 25.4908452,4.5 23.2382116,4.5 L7.55134183,4.5 C5.29623884,4.5 3.5,5.99590459 3.5,7.79016893 L3.5,18.5728367 C3.5,20.3682005 5.29579877,21.8637386 7.55134183,21.8637386 L7.81938004,21.8637386 C8.71376528,21.8637386 9.48834384,22.450432 9.58119515,23.2370811 C9.59171262,23.3005722 9.59676345,23.3630249 9.59676345,23.4258068 C9.59676345,23.4928906 9.59165373,23.5567227 9.5879173,23.5342859 C9.58791656,23.5608094 9.58791656,23.5608094 9.58791289,23.5873381 C9.58784554,23.9950118 9.58702659,24.4316058 9.58570348,24.8692465 C9.58487341,25.1438056 9.58404347,25.3580869 9.58343603,25.4711817 Z" id="Chat"></path>
                </g>
            </g>
        </g>
    </g>
</svg>