<?xml version="1.0" encoding="UTF-8"?>
<svg width="42px" height="42px" viewBox="0 0 42 42" version="1.1" xmlns="http://www.w3.org/2000/svg" xmlns:xlink="http://www.w3.org/1999/xlink">
    <!-- Generator: Sketch 49 (51002) - http://www.bohemiancoding.com/sketch -->
    <title>Business_Tax_Icon</title>
    <desc>Created with Sketch.</desc>
    <defs></defs>
    <g id="Page-1" stroke="none" stroke-width="1" fill="none" fill-rule="evenodd">
        <g id="01-Business---01-Documents" transform="translate(-999.000000, -623.000000)">
            <g id="Business_Tax_Icon" transform="translate(1000.000000, 624.000000)">
                <circle id="Oval-191" stroke="#8B797D" stroke-width="0.7" fill="#FFFFFF" cx="20" cy="20" r="20"></circle>
                <g id="Group" transform="translate(9.000000, 9.000000)" fill="#8B797D">
                    <path d="M1.84,21.47372 L22.08,21.47372 L22.08,19.63372 L1.84,19.63372 L1.84,21.47372 Z M22.54,22.3928 L1.38,22.3928 C1.12608,22.3928 0.92,22.19132 0.92,21.9328 L0.92,19.1728 C0.92,18.91612 1.12608,18.71372 1.38,18.71372 L22.54,18.71372 C22.79392,18.71372 23,18.91612 23,19.1728 L23,21.9328 C23,22.19132 22.79392,22.3928 22.54,22.3928 L22.54,22.3928 Z" id="Fill-11189"></path>
                    <path d="M3.68,18.71372 L20.24,18.71372 L20.24,16.87372 L3.68,16.87372 L3.68,18.71372 Z M20.7,19.6328 L3.22,19.6328 C2.96608,19.6328 2.76,19.43132 2.76,19.1728 L2.76,16.4128 C2.76,16.15612 2.96608,15.95372 3.22,15.95372 L20.7,15.95372 C20.95392,15.95372 21.16,16.15612 21.16,16.4128 L21.16,19.1728 C21.16,19.43132 20.95392,19.6328 20.7,19.6328 L20.7,19.6328 Z" id="Fill-11190"></path>
                    <path d="M4.6,14.1128 L6.44,14.1128 L6.44,6.7528 L4.6,6.7528 L4.6,14.1128 Z M6.9,15.0328 L4.14,15.0328 C3.88608,15.0328 3.68,14.8304 3.68,14.57372 L3.68,6.29372 C3.68,6.03612 3.88608,5.8328 4.14,5.8328 L6.9,5.8328 C7.15392,5.8328 7.36,6.03612 7.36,6.29372 L7.36,14.57372 C7.36,14.8304 7.15392,15.0328 6.9,15.0328 L6.9,15.0328 Z" id="Fill-11191"></path>
                    <path d="M17.48,14.1128 L19.32,14.1128 L19.32,6.7528 L17.48,6.7528 L17.48,14.1128 Z M19.78,15.0328 L17.02,15.0328 C16.76608,15.0328 16.56,14.8304 16.56,14.57372 L16.56,6.29372 C16.56,6.03612 16.76608,5.8328 17.02,5.8328 L19.78,5.8328 C20.03392,5.8328 20.24,6.03612 20.24,6.29372 L20.24,14.57372 C20.24,14.8304 20.03392,15.0328 19.78,15.0328 L19.78,15.0328 Z" id="Fill-11192"></path>
                    <path d="M3.8272,3.9928 L19.54172,3.9928 L11.68492,1.2604 L3.8272,3.9928 L3.8272,3.9928 Z M22.28332,4.91372 L22.26492,4.91372 L1.10492,4.91372 C0.88044,4.91372 0.68908,4.7472 0.65136,4.5264 C0.61364,4.30652 0.74152,4.094 0.95404,4.0204 L11.53404,0.3404 C11.63156,0.30452 11.73736,0.30452 11.8358,0.3404 L22.36152,4.00292 C22.57864,4.03972 22.74332,4.22372 22.74332,4.4528 C22.74332,4.7104 22.53724,4.91372 22.28332,4.91372 L22.28332,4.91372 Z" id="Fill-11193"></path>
                    <path d="M12.03636,13.66292 C11.00044,13.66292 10.30492,12.9996 10.30492,12.00692 C10.30492,11.74932 10.51008,11.546 10.76492,11.546 C11.01884,11.546 11.22492,11.74932 11.22492,12.00692 C11.22492,12.65 11.73276,12.74292 12.03636,12.74292 C12.33904,12.74292 12.84596,12.65 12.84596,12.00692 C12.84596,11.5736 12.75212,11.4908 12.01152,11.086 L11.60764,10.856 C10.87992,10.4512 10.30492,10.13012 10.30492,9.1264 C10.30492,8.14292 11.017,7.4612 12.03636,7.4612 C13.06032,7.4612 13.74848,8.1328 13.74848,9.1264 C13.74848,9.384 13.5424,9.5864 13.28848,9.5864 C13.03364,9.5864 12.82848,9.384 12.82848,9.1264 C12.82848,8.4732 12.33168,8.3812 12.03636,8.3812 C11.79164,8.3812 11.22492,8.4548 11.22492,9.1264 C11.22492,9.55972 11.31876,9.6416 12.05568,10.05652 L12.45956,10.2764 C13.18912,10.6812 13.76596,11.0032 13.76596,12.00692 C13.76596,12.9812 13.0548,13.66292 12.03636,13.66292" id="Fill-11194"></path>
                    <path d="M12.1624,7.2496 C12.0428,7.2496 11.9232,7.20452 11.8404,7.1116 C11.7576,7.038 11.7024,6.91932 11.7024,6.7896 C11.7024,6.67 11.7484,6.5504 11.8404,6.4676 C12.0152,6.29372 12.3188,6.29372 12.4844,6.4676 C12.5764,6.5504 12.6224,6.67 12.6224,6.7896 C12.6224,6.91932 12.5764,7.038 12.4844,7.1208 C12.4016,7.20452 12.282,7.2496 12.1624,7.2496" id="Fill-11195"></path>
                    <polygon id="Fill-11196" points="11.96 6.7528 12.88 6.7528 12.88 7.6728 11.96 7.6728"></polygon>
                    <path d="M12.1624,14.57372 C12.0428,14.57372 11.9232,14.5268 11.8404,14.4348 C11.7576,14.3612 11.7024,14.2416 11.7024,14.1128 C11.7024,13.9932 11.7484,13.8736 11.8404,13.7908 C12.0152,13.616 12.3188,13.616 12.4844,13.7908 C12.5764,13.8736 12.6224,13.9932 12.6224,14.1128 C12.6224,14.2416 12.5764,14.3612 12.4844,14.444 C12.4016,14.5268 12.282,14.57372 12.1624,14.57372" id="Fill-11197"></path>
                    <polygon id="Fill-11198" points="11.96 13.19372 12.88 13.19372 12.88 14.11372 11.96 14.11372"></polygon>
                </g>
            </g>
        </g>
    </g>
</svg>