<?xml version="1.0" encoding="UTF-8"?>
<svg width="24px" height="25px" viewBox="0 0 24 25" version="1.1" xmlns="http://www.w3.org/2000/svg" xmlns:xlink="http://www.w3.org/1999/xlink">
    <!-- Generator: Sketch 49 (51002) - http://www.bohemiancoding.com/sketch -->
    <title>Fill 3331 + Fill 3332 + Fill 3333</title>
    <desc>Created with Sketch.</desc>
    <defs></defs>
    <g id="Page-1" stroke="none" stroke-width="1" fill="none" fill-rule="evenodd">
        <g id="00-Search---02" transform="translate(-396.000000, -329.000000)" fill="#423C3E">
            <g id="Category-Selector" transform="translate(259.000000, 328.000000)">
                <g id="Fill-3331-+-Fill-3332-+-Fill-3333" transform="translate(137.000000, 1.000000)">
                    <path d="M21.5,24.341 L2.5,24.341 C2.224,24.341 2,24.12 2,23.84 L2,10.34 C2,10.06 2.224,9.841 2.5,9.841 C2.776,9.841 3,10.06 3,10.34 L3,23.341 L21,23.341 L21,10.34 C21,10.06 21.224,9.841 21.5,9.841 C21.776,9.841 22,10.06 22,10.34 L22,23.84 C22,24.12 21.776,24.341 21.5,24.341" id="Fill-3331"></path>
                    <path d="M19.5,20.341 L4.5,20.341 C4.224,20.341 4,20.12 4,19.841 L4,10.34 C4,10.06 4.224,9.841 4.5,9.841 C4.776,9.841 5,10.06 5,10.34 L5,19.34 L19,19.34 L19,10.34 C19,10.06 19.224,9.841 19.5,9.841 C19.776,9.841 20,10.06 20,10.34 L20,19.841 C20,20.12 19.776,20.341 19.5,20.341" id="Fill-3332"></path>
                    <path d="M20.221,8.341 C20.221,9.2 20.818,9.841 21.61,9.841 C22.402,9.841 23,9.2 23,8.341 L23,7.94 L20.381,1.34 L3.057,1.34 L1,7.92 L1,8.341 C1,9.071 1.302,9.841 1.86,9.841 C2.676,9.841 3.291,9.2 3.291,8.341 C3.291,8.061 3.515,7.841 3.791,7.841 C4.067,7.841 4.291,8.061 4.291,8.341 C4.291,9.18 4.935,9.841 5.756,9.841 C6.573,9.841 7.238,9.17 7.238,8.341 C7.238,8.061 7.462,7.841 7.738,7.841 C8.015,7.841 8.238,8.061 8.238,8.341 C8.238,9.17 8.907,9.841 9.729,9.841 C10.554,9.841 11.225,9.17 11.225,8.341 C11.225,8.061 11.448,7.841 11.725,7.841 C12.001,7.841 12.225,8.061 12.225,8.341 C12.225,9.17 12.896,9.841 13.723,9.841 C14.549,9.841 15.222,9.17 15.222,8.341 C15.222,8.061 15.445,7.841 15.722,7.841 C15.998,7.841 16.222,8.061 16.222,8.341 C16.222,9.17 16.895,9.841 17.722,9.841 C18.548,9.841 19.221,9.17 19.221,8.341 C19.221,8.061 19.444,7.841 19.721,7.841 C19.997,7.841 20.221,8.061 20.221,8.341 L20.221,8.341 Z M21.61,10.841 C20.822,10.841 20.135,10.46 19.702,9.86 C19.245,10.46 18.527,10.841 17.722,10.841 C16.905,10.841 16.179,10.451 15.722,9.841 C15.266,10.451 14.539,10.841 13.723,10.841 C12.907,10.841 12.181,10.451 11.725,9.841 C11.27,10.451 10.544,10.841 9.729,10.841 C8.917,10.841 8.194,10.451 7.739,9.841 C7.286,10.451 6.565,10.841 5.756,10.841 C4.961,10.841 4.253,10.46 3.802,9.86 C3.361,10.46 2.662,10.841 1.86,10.841 C0.782,10.841 0,9.79 0,8.341 L0,7.841 C0,7.791 0.008,7.74 0.022,7.69 L2.212,0.69 C2.277,0.48 2.471,0.341 2.689,0.341 L20.721,0.341 C20.926,0.341 21.109,0.47 21.186,0.66 L23.965,7.661 C23.988,7.71 24,7.781 24,7.841 L24,8.341 C24,9.771 22.973,10.841 21.61,10.841 L21.61,10.841 Z" id="Fill-3333"></path>
                </g>
            </g>
        </g>
    </g>
</svg>