<?xml version="1.0" encoding="UTF-8"?>
<svg width="42px" height="42px" viewBox="0 0 42 42" version="1.1" xmlns="http://www.w3.org/2000/svg" xmlns:xlink="http://www.w3.org/1999/xlink">
    <!-- Generator: Sketch 49 (51002) - http://www.bohemiancoding.com/sketch -->
    <title>Certificates_icon</title>
    <desc>Created with Sketch.</desc>
    <defs></defs>
    <g id="Page-1" stroke="none" stroke-width="1" fill="none" fill-rule="evenodd">
        <g id="01-Business---01-Documents" transform="translate(-999.000000, -342.000000)">
            <g id="Certificates_icon" transform="translate(1000.000000, 342.000000)">
                <circle id="Oval-191" stroke="#8B797D" stroke-width="0.7" fill="#FFFFFF" cx="20" cy="21" r="20"></circle>
                <circle id="Oval-136" fill="#FA6150" cx="32" cy="6" r="6"></circle>
                <g id="Fill-8764-+-Fill-8765-+-Fill-8766" transform="translate(12.000000, 9.000000)" fill="#8B797D">
                    <path d="M15.5,24.34 C15.387,24.34 15.274,24.3 15.184,24.23 L11,20.8 L6.816,24.23 C6.666,24.351 6.46,24.38 6.286,24.291 C6.111,24.21 6,24.03 6,23.84 L6,3.34 C6,3.061 6.224,2.84 6.5,2.84 C6.776,2.84 7,3.061 7,3.34 L7,22.791 L10.684,19.771 C10.867,19.621 11.133,19.621 11.316,19.771 L15,22.791 L15,3.34 C15,3.061 15.224,2.84 15.5,2.84 C15.776,2.84 16,3.061 16,3.34 L16,23.84 C16,24.03 15.889,24.21 15.714,24.291 C15.646,24.33 15.572,24.34 15.5,24.34" id="Fill-8764"></path>
                    <path d="M6,11.34 L0.5,11.34 C0.224,11.34 0,11.12 0,10.84 L0,3.36 C0,1.581 1.105,0.34 2.689,0.34 L12.689,0.34 C14.298,0.34 15.876,2.04 15.876,3.78 C15.876,4.05 15.652,4.28 15.376,4.28 C15.1,4.28 14.876,4.05 14.876,3.78 C14.876,2.59 13.752,1.34 12.689,1.34 L2.689,1.34 C1.442,1.34 1,2.431 1,3.36 L1,10.34 L6,10.34 C6.276,10.34 6.5,10.561 6.5,10.84 C6.5,11.12 6.276,11.34 6,11.34" id="Fill-8765"></path>
                    <path d="M6.221,3.84 C5.944,3.84 5.721,3.62 5.721,3.34 C5.721,2.221 4.81,1.311 3.689,1.311 C3.413,1.311 3.189,1.09 3.189,0.811 C3.189,0.53 3.413,0.311 3.689,0.311 C5.361,0.311 6.721,1.67 6.721,3.34 C6.721,3.62 6.497,3.84 6.221,3.84" id="Fill-8766"></path>
                </g>
            </g>
        </g>
    </g>
</svg>