<?xml version="1.0" encoding="UTF-8"?>
<svg width="12px" height="12px" viewBox="0 0 12 12" version="1.1" xmlns="http://www.w3.org/2000/svg" xmlns:xlink="http://www.w3.org/1999/xlink">
    <!-- Generator: Sketch 49 (51002) - http://www.bohemiancoding.com/sketch -->
    <title>DarkClose_icon@2x</title>
    <desc>Created with Sketch.</desc>
    <defs></defs>
    <g id="Page-1" stroke="none" stroke-width="1" fill="none" fill-rule="evenodd">
        <g id="00-Search---03" transform="translate(-1406.000000, -488.000000)" fill="#707070">
            <path d="M1413.42612,493.999979 L1417.70454,498.278734 C1418.09843,498.67229 1418.09843,499.310985 1417.70454,499.704875 C1417.31099,500.098431 1416.67229,500.098431 1416.2784,499.704875 L1411.99998,495.426453 L1407.72156,499.704875 C1407.32767,500.098431 1406.68931,500.098431 1406.29542,499.704875 C1405.90153,499.310985 1405.90153,498.67229 1406.29542,498.278734 L1410.57384,493.999979 L1406.29542,489.721558 C1405.90153,489.327668 1405.90153,488.689307 1406.29542,488.295417 C1406.68931,487.901861 1407.32767,487.901861 1407.72156,488.295417 L1411.99998,492.573839 L1416.2784,488.295417 C1416.67229,487.901528 1417.31099,487.901528 1417.70487,488.295417 C1418.09843,488.689307 1418.09843,489.327668 1417.70454,489.721558 L1413.42612,493.999979 Z" id="DarkClose_icon"></path>
        </g>
    </g>
</svg>