<?xml version="1.0" encoding="UTF-8"?>
<svg width="28px" height="20px" viewBox="0 0 28 20" version="1.1" xmlns="http://www.w3.org/2000/svg" xmlns:xlink="http://www.w3.org/1999/xlink">
    <!-- Generator: Sketch 49 (51002) - http://www.bohemiancoding.com/sketch -->
    <title>Cloud_icon_unselected</title>
    <desc>Created with Sketch.</desc>
    <defs></defs>
    <g id="Page-1" stroke="none" stroke-width="1" fill="none" fill-rule="evenodd">
        <g id="01-Business---01-Documents" transform="translate(-1431.000000, -26.000000)" fill="#323339">
            <g id="Group-2" transform="translate(1305.000000, 15.000000)">
                <g id="Cloud_icon_unselected" transform="translate(120.000000, 1.000000)">
                    <path d="M12.4244706,18.0113101 C9.35811765,18.0113101 6.94117647,20.4901037 6.94117647,23.5259189 C6.94117647,26.5230914 9.42023529,29.0574929 12.3538824,29.0574929 L28.8244706,29.0574929 C31.12,29.0574929 33.0588235,27.0603205 33.0588235,24.7031103 C33.0588235,23.1668238 32.2362353,21.7436381 30.9110588,20.9811499 C30.7538824,20.8953817 30.6625882,20.7163054 30.6748235,20.5381715 C30.6917647,20.3213949 30.7058824,20.1036758 30.7058824,19.9066918 C30.7058824,14.9679548 26.6964706,10.9425071 21.7665882,10.9425071 C17.6771765,10.9425071 14.1176471,13.7144204 13.1105882,17.6720075 C13.056,17.8887842 12.8630588,18.0490104 12.6334118,18.0311027 C12.5694118,18.0311027 12.5063529,18.0207352 12.4451765,18.0113101 L12.4244706,18.0113101 L12.4244706,18.0113101 Z M28.8244706,30 L12.3538824,30 C8.85082353,30 6,27.0970782 6,23.5259189 C6,19.9717248 8.82447059,17.0791706 12.3058824,17.0603205 C13.5463529,12.8840716 17.3807059,10 21.7665882,10 C27.2150588,10 31.6470588,14.4392083 31.6470588,19.9066918 C31.6470588,20.0377003 31.6414118,20.1790763 31.6329412,20.3213949 C33.1002353,21.2723845 34,22.931197 34,24.7031103 C34,27.5786993 31.6301176,30 28.8244706,30 L28.8244706,30 Z" id="Fill-1190"></path>
                </g>
            </g>
        </g>
    </g>
</svg>