<?xml version="1.0" encoding="UTF-8"?>
<svg width="42px" height="42px" viewBox="0 0 42 42" version="1.1" xmlns="http://www.w3.org/2000/svg" xmlns:xlink="http://www.w3.org/1999/xlink">
    <!-- Generator: Sketch 49 (51002) - http://www.bohemiancoding.com/sketch -->
    <title>Contracts_icon</title>
    <desc>Created with Sketch.</desc>
    <defs></defs>
    <g id="Page-1" stroke="none" stroke-width="1" fill="none" fill-rule="evenodd">
        <g id="01-Business---01-Documents" transform="translate(-1359.000000, -342.000000)">
            <g id="Contracts_icon" transform="translate(1360.000000, 343.000000)">
                <circle id="Oval-191" stroke="#8B797D" stroke-width="0.7" fill="#FFFFFF" cx="20" cy="20" r="20"></circle>
                <g id="Group" transform="translate(8.000000, 14.000000)" fill="#8B797D">
                    <path d="M12.565,14.16 C12,14.16 11.459,13.94 11.142,13.74 C10.699,13.451 7.849,11.08 6.235,9.73 L4.875,8.581 C4.664,8.411 4.637,8.09 4.815,7.88 C4.993,7.67 5.308,7.641 5.52,7.82 L6.877,8.96 C8.962,10.71 11.358,12.68 11.691,12.9 C11.932,13.061 12.357,13.2 12.696,13.15 C12.982,13.121 13.069,12.98 13.115,12.86 C13.172,12.701 13.304,12.58 13.466,12.541 C13.628,12.5 13.799,12.541 13.923,12.66 C14.218,12.931 14.679,12.951 14.984,12.83 C15.137,12.771 15.325,12.65 15.346,12.42 C15.364,12.23 15.488,12.061 15.666,12 C15.845,11.93 16.045,11.971 16.185,12.1 C16.327,12.23 16.666,12.23 16.942,12.09 C17.096,12.011 17.348,11.84 17.314,11.53 C17.293,11.33 17.388,11.141 17.556,11.041 C17.723,10.94 17.935,10.95 18.096,11.061 C18.24,11.16 18.429,11.08 18.546,10.98 C18.732,10.831 18.865,10.521 18.681,10.141 C18.112,8.951 15.073,6.07 13.203,4.761 L13.184,4.77 C12.656,4.96 12.598,4.971 12.205,5.01 C11.708,5.73 10.723,6.96 9.248,6.48 C8.781,6.32 8.462,5.971 8.349,5.49 C8.096,4.4 8.907,2.891 9.59,2.221 C10.715,1.121 12.777,0.17 14.886,1.11 C16.837,1.98 18.052,2.34 18.064,2.35 C18.329,2.431 18.481,2.7 18.403,2.971 C18.326,3.23 18.05,3.391 17.783,3.311 C17.731,3.291 16.498,2.93 14.478,2.021 C12.829,1.291 11.191,2.05 10.291,2.94 C9.738,3.48 9.183,4.661 9.323,5.261 C9.357,5.411 9.424,5.48 9.561,5.53 C10.307,5.771 10.86,5.221 11.507,4.26 C11.59,4.141 11.724,4.061 11.873,4.041 L12.054,4.02 C12.388,3.99 12.388,3.99 12.842,3.83 L13.104,3.73 C13.252,3.68 13.42,3.701 13.551,3.79 C15.36,4.99 18.855,8.19 19.582,9.701 C19.937,10.44 19.785,11.241 19.196,11.74 C18.906,11.991 18.565,12.11 18.218,12.11 C18.077,12.471 17.79,12.78 17.39,12.98 C16.977,13.19 16.517,13.24 16.123,13.15 C15.948,13.42 15.681,13.63 15.345,13.77 C14.822,13.971 14.229,13.94 13.737,13.721 C13.506,13.95 13.193,14.101 12.815,14.15 C12.732,14.16 12.648,14.16 12.565,14.16" id="Fill-10457"></path>
                    <path d="M10.958,2.32 L10.903,2.32 C9.879,2.21 7.433,2.13 6.646,2.16 C6.367,2.17 6.14,1.95 6.131,1.67 C6.124,1.391 6.341,1.16 6.617,1.16 C7.45,1.13 9.932,1.2 11.011,1.32 C11.285,1.351 11.484,1.6 11.454,1.871 C11.426,2.13 11.209,2.32 10.958,2.32" id="Fill-10458"></path>
                    <path d="M19.27,10.221 C19.119,10.221 18.97,10.15 18.872,10.02 C18.704,9.8 18.747,9.49 18.967,9.32 L19.946,8.581 C20.166,8.411 20.479,8.451 20.646,8.67 C20.813,8.891 20.771,9.201 20.55,9.371 L19.572,10.121 C19.481,10.181 19.375,10.221 19.27,10.221" id="Fill-10459"></path>
                    <path d="M17.811,11.971 C17.703,11.971 17.593,11.94 17.502,11.87 C16.977,11.451 14.232,8.891 14.116,8.78 C13.914,8.59 13.904,8.271 14.092,8.07 C14.281,7.871 14.598,7.86 14.799,8.05 C15.584,8.78 17.713,10.761 18.121,11.08 C18.338,11.25 18.375,11.57 18.204,11.78 C18.105,11.91 17.959,11.971 17.811,11.971" id="Fill-10460"></path>
                    <path d="M15.844,12.96 C15.734,12.96 15.624,12.931 15.532,12.85 C14.905,12.351 12.971,10.621 12.658,10.28 C12.471,10.081 12.484,9.761 12.688,9.57 C12.891,9.391 13.207,9.4 13.394,9.601 C13.625,9.86 15.493,11.541 16.157,12.07 C16.372,12.25 16.407,12.561 16.235,12.78 C16.136,12.9 15.991,12.96 15.844,12.96" id="Fill-10461"></path>
                    <path d="M13.585,13.53 C13.471,13.53 13.357,13.491 13.263,13.41 C12.574,12.83 11.677,11.92 11.118,11.33 C10.929,11.12 10.94,10.811 11.142,10.621 C11.343,10.43 11.661,10.44 11.848,10.641 C12.431,11.271 13.294,12.13 13.908,12.641 C14.119,12.82 14.146,13.141 13.968,13.351 C13.869,13.471 13.728,13.53 13.585,13.53" id="Fill-10462"></path>
                    <path d="M1.74,9.291 C2.283,9.34 3.612,9.291 4.203,9.25 C4.567,8.12 5.791,4.24 6.088,2.01 C5.092,1.73 3.456,1.44 2.646,1.311 C2.422,2.63 1.821,6.41 1.74,9.291 L1.74,9.291 Z M2.516,10.32 C1.893,10.32 1.435,10.28 1.115,10.2 C0.888,10.15 0.729,9.94 0.731,9.71 C0.765,6.08 1.706,0.871 1.746,0.641 C1.794,0.38 2.046,0.201 2.314,0.24 C2.445,0.261 5.527,0.741 6.796,1.181 C7.012,1.26 7.149,1.471 7.129,1.701 C6.902,4.3 5.125,9.65 5.049,9.871 C4.986,10.061 4.819,10.2 4.622,10.21 C4.577,10.221 3.518,10.32 2.516,10.32 L2.516,10.32 Z" id="Fill-10463"></path>
                    <path d="M20.988,8.94 C21.238,9 21.713,9.05 22.592,9.05 C22.99,9.05 23.369,9.04 23.656,9.03 C23.466,7.3 22.972,3.951 22.229,2.681 C22.008,2.65 21.773,2.63 21.528,2.63 C20.469,2.63 19.425,2.93 18.831,3.141 C19.536,4.6 20.587,7.59 20.988,8.94 L20.988,8.94 Z M22.592,10.05 C21.517,10.05 20.798,9.971 20.394,9.811 C20.25,9.75 20.143,9.63 20.102,9.48 C19.718,8.09 18.306,4.121 17.699,3.141 C17.623,3.021 17.603,2.87 17.646,2.73 C17.688,2.59 17.787,2.48 17.919,2.42 C17.991,2.391 19.699,1.63 21.528,1.63 C21.915,1.63 22.285,1.67 22.626,1.74 C22.751,1.761 22.862,1.831 22.936,1.931 C24.143,3.62 24.65,8.86 24.704,9.46 C24.716,9.59 24.674,9.721 24.587,9.83 C24.5,9.931 24.375,9.99 24.241,10 C24.241,10 23.459,10.05 22.592,10.05 L22.592,10.05 Z" id="Fill-10464"></path>
                </g>
            </g>
        </g>
    </g>
</svg>