<?xml version="1.0" encoding="UTF-8"?>
<svg width="21px" height="25px" viewBox="0 0 21 25" version="1.1" xmlns="http://www.w3.org/2000/svg" xmlns:xlink="http://www.w3.org/1999/xlink">
    <!-- Generator: Sketch 49 (51002) - http://www.bohemiancoding.com/sketch -->
    <title>Fill 8047 + Fill 8048 + Fill 8049</title>
    <desc>Created with Sketch.</desc>
    <defs></defs>
    <g id="Page-1" stroke="none" stroke-width="1" fill="none" fill-rule="evenodd">
        <g id="00-Search---02" transform="translate(-649.000000, -328.000000)" fill="#423C3E">
            <g id="Group-3" transform="translate(620.000000, 328.000000)">
                <g id="Fill-8047-+-Fill-8048-+-Fill-8049" transform="translate(29.000000, 0.000000)">
                    <path d="M1,23.34 L17,23.34 L17,3.34 L5.453,3.34 L1,8.61 L1,23.34 L1,23.34 Z M17.5,24.34 L0.5,24.34 C0.224,24.34 0,24.12 0,23.84 L0,8.42 C0,8.3 0.042,8.19 0.118,8.101 L4.839,2.521 C4.935,2.411 5.074,2.34 5.221,2.34 L17.5,2.34 C17.776,2.34 18,2.56 18,2.84 L18,23.84 C18,24.12 17.776,24.34 17.5,24.34 L17.5,24.34 Z" id="Fill-8047"></path>
                    <path d="M20.5,22.34 L18,22.34 C17.724,22.34 17.5,22.121 17.5,21.84 C17.5,21.561 17.724,21.34 18,21.34 L20,21.34 L20,1.34 L8.449,1.34 L6.856,3.17 C6.675,3.38 6.358,3.4 6.151,3.221 C5.943,3.04 5.921,2.721 6.103,2.511 L7.844,0.511 C7.939,0.4 8.077,0.34 8.221,0.34 L20.5,0.34 C20.776,0.34 21,0.561 21,0.84 L21,21.84 C21,22.121 20.776,22.34 20.5,22.34" id="Fill-8048"></path>
                    <path d="M5.5,9.34 L1,9.34 C0.724,9.34 0.5,9.12 0.5,8.84 C0.5,8.56 0.724,8.34 1,8.34 L5,8.34 L5,3.34 C5,3.061 5.224,2.84 5.5,2.84 C5.776,2.84 6,3.061 6,3.34 L6,8.84 C6,9.12 5.776,9.34 5.5,9.34" id="Fill-8049"></path>
                </g>
            </g>
        </g>
    </g>
</svg>