<?xml version="1.0" encoding="UTF-8"?>
<svg width="40px" height="40px" viewBox="0 0 40 40" version="1.1" xmlns="http://www.w3.org/2000/svg" xmlns:xlink="http://www.w3.org/1999/xlink">
    <!-- Generator: Sketch 49 (51002) - http://www.bohemiancoding.com/sketch -->
    <title>Financial_icon@2x</title>
    <desc>Created with Sketch.</desc>
    <defs></defs>
    <g id="Page-1" stroke="none" stroke-width="1" fill="none" fill-rule="evenodd">
        <g id="01-Business---01-Documents" transform="translate(-280.000000, -624.000000)">
            <g id="Financial_icon" transform="translate(280.000000, 624.000000)">
                <ellipse id="Oval-191" stroke="#8B797D" stroke-width="0.7" fill="#FFFFFF" cx="19.8125" cy="20.185979" rx="19.40625" ry="19.3853459"></ellipse>
                <path d="M18.201913,12.3641274 C17.5390752,11.7042908 16.3862641,11.7031472 15.7222815,12.3641274 L14.6095383,13.4768156 C13.9226598,14.1640978 13.927239,15.2722116 14.6095383,15.9526324 L15.7222815,17.0653206 C16.4000017,17.7411671 17.5093105,17.7560335 18.201913,17.0653206 L19.3146562,15.9526324 C19.9912315,15.2779295 20.0084035,14.1698156 19.3146562,13.4768156 L18.201913,12.3641274 L18.201913,12.3641274 Z M18.5052843,15.1441324 L17.3925411,16.2568206 C17.1624368,16.4855334 16.7629025,16.486677 16.5316534,16.2568206 L15.4189102,15.1429889 C15.1819371,14.9074146 15.1807923,14.523177 15.4189102,14.2853156 L16.5316534,13.173771 C16.7697713,12.9359096 17.155568,12.9370532 17.3925411,13.1726274 L18.5052843,14.2853156 C18.7422574,14.5220334 18.744547,14.9051275 18.5052843,15.1441324 L18.5052843,15.1441324 Z M32.0596871,25.4693752 C32.5050133,25.0256722 32.75,24.4344494 32.75,23.805489 C32.75,23.1765286 32.5050133,22.5864494 32.0596871,22.1427464 L19.1269094,9.22161253 C18.2362569,8.33191944 16.6850562,8.33306301 15.7955486,9.22161253 L7.56445431,17.4438404 C6.6451819,18.3621226 6.6451819,19.8579048 7.56445431,20.7773305 L20.4926528,33.6904594 C21.4073461,34.6041674 22.900162,34.6201773 23.8297376,33.6904594 L24.6104896,32.9116921 L32.0596871,25.4693752 L32.0596871,25.4693752 Z M23.0203658,32.8819594 C22.561302,33.3416723 21.7622333,33.3416723 21.3020247,32.8819594 L8.37497097,19.9688305 C7.90102479,19.4953949 7.90102479,18.7246325 8.37497097,18.2523404 L8.75046456,17.8772513 L23.3970042,32.5068703 L23.0203658,32.8819594 L23.0203658,32.8819594 Z M24.206376,31.6983703 L9.55983641,17.0687513 L10.7298195,15.9000285 L25.3752143,30.5307911 L24.206376,31.6983703 L24.206376,31.6983703 Z M31.2503152,24.6608751 L26.1845862,29.7211475 L11.5391913,15.0915285 L16.6049204,10.0301125 C17.0616946,9.57497392 17.8596185,9.57383036 18.3175375,10.0301125 L31.2503152,22.9512464 C31.4792747,23.1788157 31.6052025,23.4830038 31.6052025,23.805489 C31.6052025,24.1279741 31.4792747,24.4321623 31.2503152,24.6608751 L31.2503152,24.6608751 Z" id="creditcard" fill="#8B797D"></path>
            </g>
        </g>
    </g>
</svg>