<?xml version="1.0" encoding="UTF-8"?>
<svg width="42px" height="42px" viewBox="0 0 42 42" version="1.1" xmlns="http://www.w3.org/2000/svg" xmlns:xlink="http://www.w3.org/1999/xlink">
    <!-- Generator: Sketch 49 (51002) - http://www.bohemiancoding.com/sketch -->
    <title>Insurance_icon@2x</title>
    <desc>Created with Sketch.</desc>
    <defs></defs>
    <g id="Page-1" stroke="none" stroke-width="1" fill="none" fill-rule="evenodd">
        <g id="01-Business---01-Documents" transform="translate(-1359.000000, -623.000000)">
            <g id="Insurance_icon" transform="translate(1360.000000, 624.000000)">
                <path d="M20,40 C31.045695,40 40,31.045695 40,20 C40,8.954305 31.045695,0 20,0 C8.954305,0 0,8.954305 0,20 C0,31.045695 8.954305,40 20,40 Z" id="Oval-191" stroke="#8B797D" stroke-width="0.7" fill="#FFFFFF"></path>
                <path d="M11.2736672,25.4936832 C14.1536672,25.4936832 15.3726672,27.5626832 15.7646672,29.3136832 C16.6046672,28.3226832 18.0676672,26.9826832 19.8736672,26.9826832 C21.1956672,26.9826832 22.4416672,27.6926832 23.5966672,29.0926832 C23.5836672,28.1726832 23.8016672,27.3926832 24.2536672,26.7526832 C25.2706672,25.3226832 27.2036672,25.0336832 28.4066672,25.0026832 C27.6616672,23.9736832 26.6706672,22.1726832 27.0506672,20.2726832 C27.3096672,18.9726832 28.1586672,17.8536832 29.5806672,16.9426832 C26.9446672,16.7436832 25.4696672,16.0926832 25.0906672,14.9736832 C24.7296672,13.9136832 25.4906672,12.7926832 26.1946672,12.0326832 C25.2976672,11.9936832 24.0776672,11.8826832 22.9686672,11.5526832 C21.8466672,11.2326832 21.1316672,10.7736832 20.6836672,10.2726832 C20.1916672,12.1026832 19.2906672,13.0236832 17.9926672,13.0236832 C16.7496672,13.0236832 15.4816672,12.0736832 14.7596672,11.4326832 C14.2826672,12.5726832 13.2266672,13.9326832 11.3756672,13.9326832 C11.2396672,13.9326832 11.1006672,13.9326832 10.9616672,13.9136832 C12.6576672,15.5626832 13.3196672,16.9226832 12.9796672,18.0226832 C12.7086672,18.9026832 11.8756672,19.3826832 11.0966672,19.6436832 C11.9776672,20.1836832 12.9636672,21.0426832 13.0576672,22.2236832 C13.1446672,23.3136832 12.4966672,24.3926832 11.0856672,25.4936832 L11.2736672,25.4936832 L11.2736672,25.4936832 Z M24.5846672,32.0026832 C24.4056672,32.0026832 24.2336672,31.9136832 24.1436672,31.7436832 C22.8006672,29.2536832 21.3636672,27.9826832 19.8736672,27.9826832 C17.6246672,27.9826832 15.8646672,30.8526832 15.8466672,30.8826832 C15.7306672,31.0736832 15.5016672,31.1636832 15.2856672,31.1126832 C15.0696672,31.0526832 14.9196672,30.8526832 14.9186672,30.6326832 C14.9176672,30.4636832 14.8536672,26.4936832 11.2736672,26.4936832 C10.5146672,26.4936832 9.6366672,26.6636832 8.6666672,27.0036832 C8.4206672,27.0926832 8.1476672,26.9736832 8.0426672,26.7336832 C7.9366672,26.4936832 8.0346672,26.2126832 8.2646672,26.0926832 C11.5136672,24.3626832 12.1226672,23.0726832 12.0606672,22.3036832 C11.9626672,21.0636832 10.0846672,20.1626832 9.3696672,19.9136832 C9.1436672,19.8336832 9.0046672,19.6126832 9.0366672,19.3736832 C9.0686672,19.1426832 9.2636672,18.9536832 9.5016672,18.9426832 C10.0706672,18.9026832 11.7556672,18.6126832 12.0246672,17.7336832 C12.2026672,17.1526832 11.9406672,15.7436832 8.1956672,12.8736832 C7.9856672,12.7126832 7.9376672,12.4136832 8.0876672,12.1926832 C8.2366672,11.9736832 8.5316672,11.9126832 8.7576672,12.0426832 C9.7436672,12.6326832 10.6246672,12.9326832 11.3756672,12.9326832 C13.4916672,12.9326832 14.0366672,10.4336832 14.0426672,10.4026832 C14.0806672,10.2236832 14.2186672,10.0736832 14.4006672,10.0236832 C14.5806672,9.97268316 14.7766672,10.0336832 14.9026672,10.1726832 C15.3676672,10.6826832 16.8276672,12.0226832 17.9926672,12.0226832 C19.3176672,12.0226832 19.8176672,10.0736832 20.0036672,8.44268316 C20.0336672,8.18368316 20.2256672,7.97368316 20.5286672,8.00268316 C20.7936672,8.02268316 21.0006672,8.24368316 21.0006672,8.50268316 C21.0006672,10.9226832 25.9466672,11.0436832 26.9376672,11.0436832 C27.2496672,11.0436832 27.4376672,11.0336832 27.4446672,11.0336832 C27.6426672,10.9936832 27.8626672,11.1526832 27.9376672,11.3626832 C28.0136672,11.5626832 27.9466672,11.8036832 27.7736672,11.9336832 C27.2266672,12.3536832 25.7326672,13.7636832 26.0376672,14.6526832 C26.1756672,15.0636832 26.9846672,16.0026832 31.5006672,16.0026832 C31.7386672,16.0026832 31.9436672,16.1726832 31.9906672,16.4026832 C32.0376672,16.6436832 31.9136672,16.8726832 31.6946672,16.9636832 C29.5466672,17.8736832 28.3136672,19.0526832 28.0306672,20.4636832 C27.5586672,22.8336832 29.8336672,25.1726832 29.8566672,25.1926832 C30.0066672,25.3426832 30.0426672,25.5736832 29.9476672,25.7736832 C29.8526672,25.9636832 29.6486672,26.0726832 29.4356672,26.0436832 C29.4216672,26.0436832 29.1046672,26.0026832 28.6376672,26.0026832 C27.6596672,26.0026832 25.8936672,26.1726832 25.0686672,27.3336832 C24.4416672,28.2236832 24.4366672,29.5626832 25.0556672,31.3426832 C25.1416672,31.5836832 25.0246672,31.8536832 24.7866672,31.9636832 C24.7206672,31.9936832 24.6516672,32.0026832 24.5846672,32.0026832 L24.5846672,32.0026832 Z" id="Fill-2641" fill="#8B797D"></path>
            </g>
        </g>
    </g>
</svg>