<?xml version="1.0" encoding="UTF-8"?>
<svg width="25px" height="22px" viewBox="0 0 25 22" version="1.1" xmlns="http://www.w3.org/2000/svg" xmlns:xlink="http://www.w3.org/1999/xlink">
    <!-- Generator: Sketch 49 (51002) - http://www.bohemiancoding.com/sketch -->
    <title>Messages_icon_unselected</title>
    <desc>Created with Sketch.</desc>
    <defs></defs>
    <g id="Page-1" stroke="none" stroke-width="1" fill="none" fill-rule="evenodd">
        <g id="01-Business---01-Documents" transform="translate(-1373.000000, -26.000000)" stroke="#323339">
            <g id="Group-2" transform="translate(1305.000000, 15.000000)">
                <g id="Messages_icon_unselected" transform="translate(60.000000, 0.000000)">
                    <path d="M14.5834358,32.4711815 C14.5834684,32.4652018 14.6266902,32.5005591 14.7186475,32.4999846 C14.7581297,32.4999846 14.7949806,32.489957 14.7886616,32.4956442 L14.8461278,32.4569085 L18.704388,29.3443304 C18.761889,29.2976209 18.8192019,29.2576081 18.9005518,29.205658 C19.2616646,28.9830248 19.7169289,28.8637386 20.434142,28.8637386 L28.2382116,28.8637386 C30.491285,28.8637386 32.2860149,27.3680867 32.2860149,25.5728367 L32.2860149,14.7901689 C32.2860149,12.9960184 30.4908452,11.5 28.2382116,11.5 L12.5513418,11.5 C10.2962388,11.5 8.5,12.9959046 8.5,14.7901689 L8.5,25.5728367 C8.5,27.3682005 10.2957988,28.8637386 12.5513418,28.8637386 L12.81938,28.8637386 C13.7137653,28.8637386 14.4883438,29.450432 14.5811951,30.2370811 C14.5917126,30.3005722 14.5967634,30.3630249 14.5967634,30.4258068 C14.5967634,30.4928906 14.5916537,30.5567227 14.5879173,30.5342859 C14.5879166,30.5608094 14.5879166,30.5608094 14.5879129,30.5873381 C14.5878455,30.9950118 14.5870266,31.4316058 14.5857035,31.8692465 C14.5848734,32.1438056 14.5840435,32.3580869 14.583436,32.4711817 Z" id="Chat"></path>
                </g>
            </g>
        </g>
    </g>
</svg>