<?xml version="1.0" encoding="UTF-8"?>
<svg width="20px" height="19px" viewBox="0 0 20 19" version="1.1" xmlns="http://www.w3.org/2000/svg" xmlns:xlink="http://www.w3.org/1999/xlink">
    <!-- Generator: Sketch 49 (51002) - http://www.bohemiancoding.com/sketch -->
    <title>Notification_icon_unselected</title>
    <desc>Created with Sketch.</desc>
    <defs></defs>
    <g id="Page-1" stroke="none" stroke-width="1" fill="none" fill-rule="evenodd">
        <g id="01-Business---01-Documents" transform="translate(-1556.000000, -26.000000)" fill="#323339">
            <g id="Group-2" transform="translate(1305.000000, 15.000000)">
                <g id="Notification_icon_unselected" transform="translate(240.000000, 1.000000)">
                    <path d="M11.8333333,26.2112743 L30.1666667,26.2112743 L30.1666667,24.6085583 C30.1666667,24.1980104 29.75,23.8340439 29.3475,23.7314069 C27.9883333,23.3682299 27.4341667,22.026054 27.4341667,19.1056371 C27.4341667,15.6238749 24.4433333,12.7887257 20.7675,12.7887257 C17.0916667,12.7887257 14.1008333,15.6238749 14.1008333,19.1056371 C14.1008333,21.8768356 13.8408333,23.3524396 12.42,23.7314069 C11.89,23.8735197 11.8333333,24.3945997 11.8333333,24.6085583 L11.8333333,26.2112743 L11.8333333,26.2112743 Z M30.5833333,27 L11.4166667,27 C11.1866667,27 11,26.8263066 11,26.6052424 L11,24.6085583 C11,23.7945681 11.4583333,23.1629559 12.195,22.9655771 C12.8908333,22.7839886 13.2675,22.1129007 13.2675,19.1056371 C13.2675,15.188852 16.6316667,12 20.7675,12 C24.9033333,12 28.2675,15.188852 28.2675,19.1056371 C28.2675,22.208432 28.9275,22.8005685 29.5725,22.9655771 C30.3991667,23.1866414 31,23.8822043 31,24.6085583 L31,26.6052424 C31,26.8263066 30.8133333,27 30.5833333,27 L30.5833333,27 Z" id="Fill-9482"></path>
                    <path d="M21,29 C19.3457143,29 18,27.8229557 18,26.3743436 C18,26.1650413 18.1911429,26 18.4285714,26 C18.6651429,26 18.8571429,26.1650413 18.8571429,26.3743436 C18.8571429,27.4103526 19.818,28.2505626 21,28.2505626 C22.182,28.2505626 23.1428571,27.4103526 23.1428571,26.3743436 C23.1428571,26.1650413 23.334,26 23.5714286,26 C23.808,26 24,26.1650413 24,26.3743436 C24,27.8229557 22.6534286,29 21,29" id="Fill-9483"></path>
                    <path d="M22.5896,13 C22.5728,13 22.556,13 22.5392,12.9907407 C22.32,12.9638889 22.1648,12.7314815 22.192,12.4824074 C22.1976,12.4259259 22.2,12.3703704 22.2,12.3148148 C22.2,11.5472222 21.6616,10.9259259 21,10.9259259 C20.3384,10.9259259 19.8,11.5472222 19.8,12.3148148 C19.8,12.3703704 19.804,12.4259259 19.808,12.4824074 C19.8312,12.7416667 19.672,12.9638889 19.452,12.9907407 C19.2352,13.0092593 19.036,12.8333333 19.0128,12.5833333 C19.0056,12.5 19,12.4074074 19,12.3148148 C19,11.037037 19.8968,10 21,10 C22.1032,10 23,11.037037 23,12.3148148 C23,12.4074074 22.996,12.5 22.9856,12.5935185 C22.96,12.825 22.788,13 22.5896,13" id="Fill-9484"></path>
                </g>
            </g>
        </g>
    </g>
</svg>