<?xml version="1.0" encoding="UTF-8"?>
<svg width="42px" height="42px" viewBox="0 0 42 42" version="1.1" xmlns="http://www.w3.org/2000/svg" xmlns:xlink="http://www.w3.org/1999/xlink">
    <!-- Generator: Sketch 49 (51002) - http://www.bohemiancoding.com/sketch -->
    <title>Operations_icon</title>
    <desc>Created with Sketch.</desc>
    <defs></defs>
    <g id="Page-1" stroke="none" stroke-width="1" fill="none" fill-rule="evenodd">
        <g id="01-Business---01-Documents" transform="translate(-639.000000, -342.000000)">
            <g id="Operations_icon" transform="translate(640.000000, 343.000000)">
                <circle id="Oval-191" stroke="#8B797D" stroke-width="0.7" fill="#FFFFFF" cx="20" cy="20" r="20"></circle>
                <g id="Group" transform="translate(3.000000, 8.000000)" fill="#8B797D">
                    <path d="M12,1.09 C10.378,1.09 8.713,1.79 8.697,1.801 C8.635,1.83 8.567,1.84 8.5,1.84 C7.122,1.84 6,2.96 6,4.341 L6,6.34 C6,6.54 5.884,6.721 5.705,6.801 C5.349,6.96 5.02,7.23 5,7.341 L5,9.34 C5,9.591 5.308,9.841 5.61,9.841 C5.887,9.841 6.11,10.061 6.11,10.341 C6.11,12.82 8.212,15.841 10.666,15.841 C13.113,15.841 15.083,12.83 15.083,10.341 C15.083,10.061 15.307,9.841 15.583,9.841 C15.871,9.841 16,9.591 16,9.34 L16,7.341 C16,6.841 16,6.841 15.5,6.841 C15.224,6.841 15,6.62 15,6.34 L15,4.341 C15,2.15 14.019,1.09 12,1.09 L12,1.09 Z M10.666,16.84 C7.735,16.84 5.348,13.621 5.127,10.77 C4.489,10.56 4,9.98 4,9.34 L4,7.341 C4,6.721 4.605,6.26 5,6.041 L5,4.341 C5,2.45 6.515,0.9 8.397,0.841 C8.799,0.68 10.383,0.091 12,0.091 C14.58,0.091 16,1.601 16,4.341 L16,5.881 C17,6.08 17,6.88 17,7.341 L17,9.34 C17,10.01 16.623,10.56 16.068,10.76 C15.864,13.661 13.577,16.84 10.666,16.84 L10.666,16.84 Z" id="Fill-4778"></path>
                    <path d="M0.5,23.841 C0.224,23.841 0,23.621 0,23.341 L0,22.341 C0,19.35 2.098,17.341 5.221,17.341 L6.468,17.341 L7.937,15.34 C8.1,15.111 8.413,15.07 8.635,15.23 C8.858,15.391 8.906,15.71 8.743,15.931 L7.125,18.14 C7.03,18.26 6.88,18.34 6.721,18.34 L5.221,18.34 C2.657,18.34 1,19.91 1,22.341 L1,23.341 C1,23.621 0.776,23.841 0.5,23.841" id="Fill-4779"></path>
                    <path d="M21.5,23.841 C21.224,23.841 21,23.621 21,23.341 L21,22.341 C21,19.71 18.637,18.34 16.303,18.34 L14.803,18.34 C14.631,18.34 14.471,18.25 14.38,18.111 L12.896,15.75 C12.749,15.511 12.819,15.2 13.053,15.06 C13.288,14.911 13.595,14.98 13.743,15.21 L15.08,17.341 L16.303,17.341 C19.551,17.341 22,19.49 22,22.341 L22,23.341 C22,23.621 21.776,23.841 21.5,23.841" id="Fill-4780"></path>
                    <path d="M27.5,23.841 C27.224,23.841 27,23.621 27,23.341 L27,22.341 C27,19.71 24.637,18.34 22.303,18.34 L20.803,18.34 C20.639,18.34 20.484,18.26 20.391,18.121 L18.768,15.76 C18.659,15.6 18.651,15.4 18.748,15.23 L18.984,14.821 C19.013,14.771 19.049,14.73 19.092,14.69 C20.337,13.63 21.11,11.93 21.11,10.25 C21.11,9.97 21.334,9.75 21.61,9.75 C21.792,9.75 22,9.7 22,9.34 L22,7.341 C22,6.841 22,6.841 21.5,6.841 C21.224,6.841 21,6.62 21,6.34 L21,4.341 C21,3.111 20.724,2.221 20.179,1.71 C19.681,1.24 18.927,1.051 17.878,1.111 C17.604,1.141 17.366,0.92 17.349,0.641 C17.332,0.371 17.542,0.13 17.817,0.111 C19.156,0.031 20.154,0.311 20.864,0.98 C21.618,1.69 22,2.821 22,4.341 L22,5.881 C23,6.08 23,6.88 23,7.341 L23,9.34 C23,9.991 22.646,10.49 22.096,10.67 C21.979,12.47 21.125,14.24 19.807,15.4 L19.771,15.46 L21.066,17.341 L22.303,17.341 C25.551,17.341 28,19.49 28,22.341 L28,23.341 C28,23.621 27.776,23.841 27.5,23.841" id="Fill-4781"></path>
                    <path d="M33.5,23.841 C33.224,23.841 33,23.621 33,23.341 L33,22.341 C33,19.71 30.637,18.34 28.303,18.34 L26.803,18.34 C26.639,18.34 26.484,18.26 26.391,18.121 L24.768,15.76 C24.659,15.6 24.651,15.4 24.748,15.23 L24.984,14.821 C25.013,14.771 25.049,14.73 25.092,14.69 C26.337,13.63 27.11,11.93 27.11,10.25 C27.11,9.97 27.334,9.75 27.61,9.75 C27.792,9.75 28,9.7 28,9.34 L28,7.341 C28,6.841 28,6.841 27.5,6.841 C27.224,6.841 27,6.62 27,6.34 L27,4.341 C27,3.111 26.724,2.221 26.179,1.71 C25.681,1.24 24.928,1.051 23.878,1.111 C23.611,1.141 23.365,0.92 23.349,0.641 C23.332,0.371 23.542,0.13 23.817,0.111 C25.157,0.031 26.154,0.311 26.864,0.98 C27.618,1.69 28,2.821 28,4.341 L28,5.881 C29,6.08 29,6.88 29,7.341 L29,9.34 C29,9.991 28.646,10.49 28.096,10.67 C27.979,12.47 27.125,14.24 25.807,15.4 L25.771,15.46 L27.066,17.341 L28.303,17.341 C31.551,17.341 34,19.49 34,22.341 L34,23.341 C34,23.621 33.776,23.841 33.5,23.841" id="Fill-4782"></path>
                    <path d="M7.842,19.131 L8.882,21.47 L9.923,20.431 L7.842,19.131 L7.842,19.131 Z M8.721,22.84 C8.691,22.84 8.66,22.84 8.63,22.83 C8.468,22.801 8.331,22.69 8.264,22.541 L6.264,18.041 C6.175,17.841 6.228,17.611 6.393,17.46 C6.561,17.32 6.8,17.301 6.986,17.42 L10.986,19.92 C11.115,20 11.201,20.131 11.218,20.281 C11.235,20.44 11.183,20.59 11.075,20.69 L9.075,22.69 C8.98,22.79 8.853,22.84 8.721,22.84 L8.721,22.84 Z" id="Fill-4783"></path>
                    <path d="M11.518,20.431 L12.559,21.47 L13.6,19.131 L11.518,20.431 L11.518,20.431 Z M12.72,22.84 C12.589,22.84 12.461,22.79 12.367,22.69 L10.367,20.69 C10.259,20.59 10.206,20.44 10.224,20.281 C10.241,20.131 10.326,20 10.455,19.92 L14.455,17.42 C14.641,17.301 14.882,17.32 15.048,17.46 C15.214,17.611 15.267,17.841 15.177,18.041 L13.177,22.541 C13.11,22.69 12.974,22.801 12.812,22.83 C12.781,22.84 12.75,22.84 12.72,22.84 L12.72,22.84 Z" id="Fill-4784"></path>
                </g>
            </g>
        </g>
    </g>
</svg>