<?xml version="1.0" encoding="UTF-8"?>
<svg width="42px" height="42px" viewBox="0 0 42 42" version="1.1" xmlns="http://www.w3.org/2000/svg" xmlns:xlink="http://www.w3.org/1999/xlink">
    <!-- Generator: Sketch 49 (51002) - http://www.bohemiancoding.com/sketch -->
    <title>Passwords_icon@2x</title>
    <desc>Created with Sketch.</desc>
    <defs></defs>
    <g id="Page-1" stroke="none" stroke-width="1" fill="none" fill-rule="evenodd">
        <g id="01-Business---01-Documents" transform="translate(-639.000000, -623.000000)">
            <g id="Passwords_icon" transform="translate(640.000000, 624.000000)">
                <ellipse id="Oval-191" stroke="#8B797D" stroke-width="0.7" fill="#FFFFFF" cx="19.9038462" cy="19.8824061" rx="19.9038462" ry="19.8824061"></ellipse>
                <path d="M9.88226554,28.9465626 C8.97720492,27.9736225 9.020401,26.4031366 9.97894247,25.4445951 L15.3414266,20.082111 C16.0171367,19.4064009 16.306139,18.444774 16.1117566,17.510916 C15.6376283,15.2318088 16.3359648,12.8899645 17.9794726,11.2464567 C20.6833412,8.54155961 25.0913978,8.55081591 27.7798393,11.3235925 C30.3335501,13.9564962 30.3757177,18.1187465 27.8724023,20.7989601 C26.1692428,22.6234801 23.7471771,23.2909623 21.4845256,22.8487167 C20.4323926,22.6450781 19.527332,22.9639063 18.5626197,23.9275901 C18.3219558,24.168254 18.0000422,24.3019561 17.6565306,24.3019561 L17.2564526,24.3019561 L17.1834307,24.7760845 C17.1834307,25.1957035 16.8769443,25.6132655 16.7144447,25.775765 C16.4727524,26.0174574 16.1508388,26.1511595 15.8083556,26.1511595 L15.4566162,26.1532165 C15.4072492,26.1542449 15.3599392,26.173786 15.3270279,26.2066973 L14.4301951,27.1014732 C14.3962554,27.1354129 14.3777428,27.1827229 14.3767143,27.2320899 L14.3705434,27.598228 C14.3705434,27.9263125 14.2337559,28.2564539 13.995149,28.4950608 L13.478853,29.0113568 C12.4699161,30.0223506 10.8377216,29.9729837 9.88226554,28.9465626 L9.88226554,28.9465626 Z M18.7066066,11.9735906 C17.308905,13.3712922 16.7154732,15.3624255 17.1186366,17.302135 C17.3839839,18.5753907 16.9911053,19.8877286 16.0685606,20.8092449 L10.7060764,26.1727575 C10.1342426,26.7435628 10.1023598,27.6733069 10.6351114,28.2451407 C11.1843187,28.835487 12.1819423,28.8550281 12.7517191,28.2842228 L13.268015,27.7679269 C13.315325,27.7206169 13.3420654,27.6558228 13.3420654,27.5900002 L13.3482363,27.2115203 C13.3554357,26.8937206 13.48091,26.5985474 13.7020327,26.3753677 L14.5988655,25.4805919 C14.8199883,25.2574121 15.1305886,25.1278239 15.4483883,25.1247385 L15.8042417,25.1226815 C15.8762352,25.1226815 15.9400008,25.0959411 15.9873108,25.0486311 C16.0613612,24.9745807 16.1467249,24.822366 16.1559812,24.7627142 L16.1549527,24.374978 C16.1549527,23.7671476 16.6496506,23.2734781 17.2564526,23.2734781 L17.6565306,23.2734781 C17.7254386,23.2734781 17.7871473,23.2477662 17.8344572,23.2004562 C19.034691,22.0012509 20.2770924,21.5641477 21.6809649,21.8387514 C23.6762121,22.2285445 25.7424244,21.573404 27.1205849,20.0965097 C29.2485058,17.8174025 29.2135376,14.2784098 27.0413921,12.0394132 C24.7571425,9.68522712 21.0103972,9.66979995 18.7066066,11.9735906 L18.7066066,11.9735906 Z M21.9915652,16.9596518 C21.0062833,15.9764269 21.0186251,14.3853715 21.9915652,13.4144883 C22.937765,12.46726 24.5905291,12.46726 25.5367288,13.4144883 C26.509669,14.3853715 26.5220107,15.9764269 25.5367288,16.9596518 C24.5586463,17.9387629 22.9706763,17.9387629 21.9915652,16.9596518 L21.9915652,16.9596518 Z M22.7186992,14.1416222 C22.1406945,14.7196268 22.1406945,15.6545133 22.7186992,16.2325179 C23.2771627,16.7909815 24.2511313,16.7909815 24.8095949,16.2325179 C25.3875995,15.6545133 25.3875995,14.7196268 24.8095949,14.1416222 C24.2315903,13.5636176 23.2967038,13.5636176 22.7186992,14.1416222 L22.7186992,14.1416222 Z" id="key_icon" fill="#8B797D"></path>
            </g>
        </g>
    </g>
</svg>