<?xml version="1.0" encoding="UTF-8"?>
<svg width="64px" height="64px" viewBox="0 0 64 64" version="1.1" xmlns="http://www.w3.org/2000/svg" xmlns:xlink="http://www.w3.org/1999/xlink">
    <!-- Generator: Sketch 49.3 (51167) - http://www.bohemiancoding.com/sketch -->
    <title>PDF_64px</title>
    <desc>Created with Sketch.</desc>
    <defs>
        <rect id="path-1" x="0" y="0" width="64" height="64" rx="4"></rect>
    </defs>
    <g id="UC64---Web-2.0" stroke="none" stroke-width="1" fill="none" fill-rule="evenodd">
        <g id="01-Business---04-Document-Chat" transform="translate(-111.000000, -895.000000)">
            <g id="Group-7" transform="translate(22.000000, 282.000000)">
                <g id="Chat-Group-01" transform="translate(21.000000, 555.000000)">
                    <g id="Scan" transform="translate(60.000000, 50.000000)">
                        <g id="PDF_64px" transform="translate(8.000000, 8.000000)">
                            <g id="Scan_bg-Copy">
                                <use fill="#FFFFFF" fill-rule="evenodd" xlink:href="#path-1"></use>
                                <rect stroke="#DCDCDC" stroke-width="1" x="0.5" y="0.5" width="63" height="63" rx="4"></rect>
                            </g>
                            <g id="PDFfile_icon" transform="translate(19.000000, 14.000000)">
                                <g id="Group">
                                    <path d="M20.25,0 L2.25,0 C1.008,0 0,1.008 0,2.25 L0,33.75 C0,34.992 1.008,36 2.25,36 L29.25,36 C30.492,36 31.5,34.992 31.5,33.75 L31.5,11.25 L20.25,0 L20.25,0 Z" id="Shape" fill="#EF4D4D"></path>
                                    <path d="M20.25,0 L20.25,9 C20.25,10.242 21.258,11.25 22.5,11.25 L31.5,11.25 L20.25,0 L20.25,0 Z" id="Shape" fill="#434854"></path>
                                    <polygon id="Shape" fill="#000000" opacity="0.15" points="22.5 11.25 31.5 20.25 31.5 11.25"></polygon>
                                </g>
                                <g id="Acrobat" transform="translate(4.500000, 12.375000)">
                                    <path d="M3.60308178,14.0765353 C1.68102726,15.5117504 0.358580761,17.5504663 0.880455057,17.8690651 L0.424392881,17.6395134 C0.160536157,17.3172651 0.760022528,15.5882676 3.60308178,14.0765353 L3.60308178,14.0765353 Z" id="Fill-3" fill="#FFFFFF"></path>
                                    <path d="M3.60308178,14.0765353 C1.68102726,15.5117504 0.358580761,17.5504663 0.880455057,17.8690651 L0.424392881,17.6395134 C0.160536157,17.3172651 0.760022528,15.5882676 3.60308178,14.0765353 L3.60308178,14.0765353 Z" id="Stroke-4" stroke="#FFFFFF" stroke-width="0.98"></path>
                                    <path d="M18.041604,12.4672404 C19.0259878,10.3725659 10.9285425,10.6870286 5.01189908,13.4333769 C9.61728768,11.6591259 18.140018,10.8951701 18.041604,12.4672404 L18.041604,12.4672404 Z" id="Fill-5" fill="#FFFFFF"></path>
                                    <path d="M18.041604,12.4672404 C19.0259878,10.3725659 10.9285425,10.6870286 5.01189908,13.4333769 C9.61728768,11.6591259 18.140018,10.8951701 18.041604,12.4672404 L18.041604,12.4672404 Z" id="Stroke-6" stroke="#FFFFFF" stroke-width="0.98"></path>
                                    <path d="M8.8815544,1.31068709 C9.10259067,0.146870917 8.5338815,0.187988286 8.37452129,0.187988286 L8.01529173,0.185068709 C7.81736878,0.185068709 7.63951791,0.343942329 7.55314711,0.667042127 C6.99185853,2.76123001 8.01042577,8.07680559 10.867718,10.5358189 C13.3907186,12.7068889 17.7832214,13.7003965 17.9600991,12.6508087 C17.0471232,13.0891102 13.6184456,11.9859968 11.313075,10.1504348 C8.58923181,7.91416085 7.42432079,2.39908087 8.01091237,0.674584366 C8.06918225,0.50281595 8.21114665,0.301973417 8.2740392,0.25696328 C8.51891868,0.379342194 8.81489074,0.68030187 8.8815544,1.31068709 L8.8815544,1.31068709 Z" id="Fill-7" fill="#FFFFFF"></path>
                                    <path d="M8.8815544,1.31068709 C9.10259067,0.146870917 8.5338815,0.187988286 8.37452129,0.187988286 L8.01529173,0.185068709 C7.81736878,0.185068709 7.63951791,0.343942329 7.55314711,0.667042127 C6.99185853,2.76123001 8.01042577,8.07680559 10.867718,10.5358189 C13.3907186,12.7068889 17.7832214,13.7003965 17.9600991,12.6508087 C17.0471232,13.0891102 13.6184456,11.9859968 11.313075,10.1504348 C8.58923181,7.91416085 7.42432079,2.39908087 8.01091237,0.674584366 C8.06918225,0.50281595 8.21114665,0.301973417 8.2740392,0.25696328 C8.51891868,0.379342194 8.81489074,0.68030187 8.8815544,1.31068709 L8.8815544,1.31068709 Z" id="Stroke-8" stroke="#FFFFFF" stroke-width="0.98"></path>
                                    <path d="M8.83374634,1.64631674 C8.58290606,2.88105429 8.47415184,5.79831944 6.09250732,10.5938455 C3.53447173,15.7445866 1.66728092,18.1464249 0.424392881,17.6395134 L0.868655103,17.867362 C1.84233386,18.3646632 3.63471052,16.7289705 6.60927236,10.998815 C8.9001667,6.58575355 8.776328,4.31407975 8.83374634,1.64631674 L8.83374634,1.64631674 Z" id="Fill-9" fill="#FFFFFF"></path>
                                    <path d="M8.83374634,1.64631674 C8.58290606,2.88105429 8.47415184,5.79831944 6.09250732,10.5938455 C3.53447173,15.7445866 1.66728092,18.1464249 0.424392881,17.6395134 L0.868655103,17.867362 C1.84233386,18.3646632 3.63471052,16.7289705 6.60927236,10.998815 C8.9001667,6.58575355 8.776328,4.31407975 8.83374634,1.64631674 L8.83374634,1.64631674 Z" id="Stroke-10" stroke="#FFFFFF" stroke-width="0.98"></path>
                                </g>
                            </g>
                        </g>
                    </g>
                </g>
            </g>
        </g>
    </g>
</svg>