<?xml version="1.0" encoding="UTF-8"?>
<svg width="30px" height="25px" viewBox="0 0 30 25" version="1.1" xmlns="http://www.w3.org/2000/svg" xmlns:xlink="http://www.w3.org/1999/xlink">
    <!-- Generator: Sketch 49 (51002) - http://www.bohemiancoding.com/sketch -->
    <title>Group</title>
    <desc>Created with Sketch.</desc>
    <defs></defs>
    <g id="Page-1" stroke="none" stroke-width="1" fill="none" fill-rule="evenodd">
        <g id="00-Search---02" transform="translate(-273.000000, -328.000000)" fill="#657786">
            <g id="Category-Selector" transform="translate(259.000000, 328.000000)">
                <g id="Group" transform="translate(14.000000, 0.000000)">
                    <path d="M28.721,23.84 C28.445,23.84 28.221,23.621 28.221,23.341 C28.221,20.9 24.229,18.841 21.721,18.841 C21.506,18.841 21.315,18.701 21.247,18.5 L20.247,15.5 C20.16,15.24 20.301,14.951 20.563,14.871 C20.826,14.781 21.108,14.92 21.195,15.18 L22.085,17.85 C25.031,18.031 29.221,20.331 29.221,23.341 C29.221,23.621 28.998,23.84 28.721,23.84" id="Fill-4839"></path>
                    <path d="M18.721,15.841 C18.445,15.841 18.221,15.621 18.221,15.341 C18.221,15.06 18.445,14.84 18.721,14.84 C23.594,14.84 25.534,12.411 26.147,11.35 C25.7,10.591 24.465,8.43 24.234,7.46 C23.836,5.77 22.5,1.841 18.721,1.841 C18.445,1.841 18.221,1.62 18.221,1.34 C18.221,1.06 18.445,0.841 18.721,0.841 C21.885,0.841 24.249,3.17 25.208,7.23 C25.404,8.061 26.676,10.29 27.15,11.08 C27.238,11.23 27.245,11.411 27.168,11.56 C26.667,12.571 24.575,15.841 18.721,15.841" id="Fill-4840"></path>
                    <path d="M13.467,1.6 C12.392,1.6 11.297,1.991 10.3,2.741 C10.213,2.811 10.108,2.84 10,2.84 C6,2.84 6,4.23 6,5.341 L6,7.34 C6,7.54 5.884,7.721 5.705,7.801 C5.349,7.96 5.02,8.23 5,8.341 L5,10.34 C5,10.49 5,10.841 5.86,10.841 C6.137,10.841 6.36,11.061 6.36,11.341 C6.36,13.88 8.265,16.841 10.721,16.841 C13.22,16.841 15.36,13.82 15.36,11.341 C15.36,11.061 15.584,10.841 15.86,10.841 C16.604,10.841 17,10.55 17,10.34 L17,8.341 C16.979,8.22 16.616,7.94 16.296,7.801 C16.116,7.721 16,7.54 16,7.34 L16,5.341 C16,5.24 16.029,5.15 16.084,5.061 C16.553,4.361 16.62,3.65 16.276,3.011 C15.818,2.15 14.716,1.6 13.467,1.6 L13.467,1.6 Z M10.721,17.84 C7.808,17.84 5.593,14.75 5.377,11.811 C4.108,11.611 4,10.661 4,10.34 L4,8.341 C4,7.721 4.605,7.26 5,7.041 L5,5.341 C5,3.551 5.59,1.88 9.835,1.841 C10.971,1.031 12.224,0.6 13.467,0.6 C15.08,0.6 16.528,1.361 17.158,2.541 C17.649,3.45 17.589,4.521 17,5.49 L17,7.041 C17.395,7.26 18,7.721 18,8.341 L18,10.34 C18,11.111 17.338,11.67 16.34,11.811 C16.094,14.65 13.681,17.84 10.721,17.84 L10.721,17.84 Z" id="Fill-4841"></path>
                    <path d="M0.5,24.841 C0.224,24.841 0,24.621 0,24.341 L0,23.341 C0,20.35 2.098,18.341 5.221,18.341 L6.467,18.341 L8.039,16.19 C8.201,15.96 8.513,15.911 8.737,16.08 C8.96,16.241 9.009,16.55 8.846,16.781 L7.125,19.14 C7.031,19.26 6.881,19.34 6.721,19.34 L5.221,19.34 C2.657,19.34 1,20.91 1,23.341 L1,24.341 C1,24.621 0.776,24.841 0.5,24.841" id="Fill-4842"></path>
                    <path d="M21.5,24.841 C21.224,24.841 21,24.621 21,24.341 L21,23.341 C21,20.71 18.637,19.34 16.303,19.34 L14.803,19.34 C14.631,19.34 14.471,19.25 14.38,19.111 L12.896,16.75 C12.749,16.511 12.819,16.2 13.053,16.06 C13.287,15.911 13.596,15.98 13.743,16.21 L15.08,18.341 L16.303,18.341 C19.551,18.341 22,20.49 22,23.341 L22,24.341 C22,24.621 21.776,24.841 21.5,24.841" id="Fill-4843"></path>
                </g>
            </g>
        </g>
    </g>
</svg>