<?xml version="1.0" encoding="UTF-8"?>
<svg width="42px" height="42px" viewBox="0 0 42 42" version="1.1" xmlns="http://www.w3.org/2000/svg" xmlns:xlink="http://www.w3.org/1999/xlink">
    <!-- Generator: Sketch 49 (51002) - http://www.bohemiancoding.com/sketch -->
    <title>Receipts_icon</title>
    <desc>Created with Sketch.</desc>
    <defs></defs>
    <g id="Page-1" stroke="none" stroke-width="1" fill="none" fill-rule="evenodd">
        <g id="01-Business---01-Documents" transform="translate(-279.000000, -342.000000)">
            <g id="Group-3" transform="translate(140.000000, 322.000000)">
                <g id="Receipts_icon" transform="translate(140.000000, 21.000000)">
                    <circle id="Oval-191" stroke="#8B797D" stroke-width="0.7" fill="#FFFFFF" cx="20" cy="20" r="20"></circle>
                    <g id="Bill" transform="translate(10.000000, 10.000000)" fill="#8B797D">
                        <path d="M17.2392488,0.44000227 L3.48530233,0.44000227 C1.70317674,0.44000227 0.253213953,1.88551792 0.253213953,3.66235769 L0.253213953,20.1569127 C0.253213953,20.351187 0.370193023,20.5262261 0.550234884,20.6002811 C0.730276744,20.6738553 0.937276744,20.6339425 1.07495581,20.4964117 L2.3391,19.2360337 L3.60324419,20.4964117 C3.79098837,20.6834728 4.09571163,20.6834728 4.28393721,20.4964117 L5.54856279,19.2360337 L6.81270698,20.4964117 C7.00045116,20.6834728 7.30517442,20.6834728 7.4934,20.4964117 L8.75754419,19.2360337 L10.0221698,20.4964117 C10.209914,20.6834728 10.5146372,20.6834728 10.7028628,20.4964117 L11.967007,19.2360337 L13.2311512,20.4964117 C13.4188953,20.6834728 13.7236186,20.6834728 13.9118442,20.4964117 L15.1764698,19.2360337 L16.440614,20.4964117 C16.6283581,20.6834728 16.9330814,20.6834728 17.121307,20.4964117 L18.3854512,19.2360337 L19.6500767,20.4964117 C19.7420233,20.5882592 19.8652605,20.6368278 19.9904233,20.6368278 C20.0525233,20.6368278 20.1151047,20.6248059 20.1747977,20.6002811 C20.3548395,20.5262261 20.4718186,20.351187 20.4718186,20.1569127 L20.4718186,3.66235769 C20.4718186,1.88551792 19.0213744,0.44000227 17.2392488,0.44000227 L17.2392488,0.44000227 Z M19.5090279,18.9984805 L18.7257977,18.2180175 C18.5375721,18.0304755 18.2328488,18.0304755 18.0451047,18.2180175 L16.7809605,19.4783956 L15.5168163,18.2180175 C15.3285907,18.0304755 15.0238674,18.0304755 14.8361233,18.2180175 L13.5714977,19.4783956 L12.3073535,18.2180175 C12.2134814,18.1242465 12.0902442,18.0776015 11.967007,18.0776015 C11.8437698,18.0776015 11.7205326,18.1242465 11.6266605,18.2180175 L10.3625163,19.4783956 L9.0978907,18.2180175 C8.90966512,18.0304755 8.60494186,18.0304755 8.41719767,18.2180175 L7.15305349,19.4783956 L5.8889093,18.2180175 C5.70068372,18.0304755 5.39596047,18.0304755 5.20821628,18.2180175 L3.9435907,19.4783956 L2.67944651,18.2180175 C2.49122093,18.0304755 2.18649767,18.0304755 1.99875349,18.2180175 L1.21600465,18.9984805 L1.21600465,3.66235769 C1.21600465,2.41496328 2.23367442,1.39983236 3.48530233,1.39983236 L17.2392488,1.39983236 C18.4908767,1.39983236 19.5090279,2.41496328 19.5090279,3.66235769 L19.5090279,18.9984805 L19.5090279,18.9984805 Z" id="Fill-399"></path>
                        <path d="M11.325307,9.1005934 L4.58577209,9.1005934 C4.32004186,9.1005934 4.10437674,9.31554533 4.10437674,9.58050844 C4.10437674,9.84547156 4.32004186,10.0604235 4.58577209,10.0604235 L11.325307,10.0604235 C11.5915186,10.0604235 11.8067023,9.84547156 11.8067023,9.58050844 C11.8067023,9.31554533 11.5915186,9.1005934 11.325307,9.1005934" id="Fill-400"></path>
                        <path d="M11.325307,13.4265611 L4.58577209,13.4265611 C4.32004186,13.4265611 4.10437674,13.641513 4.10437674,13.9064761 C4.10437674,14.1714392 4.32004186,14.3863912 4.58577209,14.3863912 L11.325307,14.3863912 C11.5915186,14.3863912 11.8067023,14.1714392 11.8067023,13.9064761 C11.8067023,13.641513 11.5915186,13.4265611 11.325307,13.4265611" id="Fill-401"></path>
                        <path d="M16.1392605,9.1005934 L14.2136791,9.1005934 C13.9479488,9.1005934 13.7322837,9.31554533 13.7322837,9.58050844 C13.7322837,9.84547156 13.9479488,10.0604235 14.2136791,10.0604235 L16.1392605,10.0604235 C16.4054721,10.0604235 16.6206558,9.84547156 16.6206558,9.58050844 C16.6206558,9.31554533 16.4054721,9.1005934 16.1392605,9.1005934" id="Fill-402"></path>
                        <path d="M16.1392605,13.4265611 L14.2136791,13.4265611 C13.9479488,13.4265611 13.7322837,13.641513 13.7322837,13.9064761 C13.7322837,14.1714392 13.9479488,14.3863912 14.2136791,14.3863912 L16.1392605,14.3863912 C16.4054721,14.3863912 16.6206558,14.1714392 16.6206558,13.9064761 C16.6206558,13.641513 16.4054721,13.4265611 16.1392605,13.4265611" id="Fill-403"></path>
                        <path d="M16.1387791,4.76789345 L4.5852907,4.76789345 C4.31956047,4.76789345 4.10389535,4.98284538 4.10389535,5.24780849 C4.10389535,5.51277161 4.31956047,5.72772354 4.5852907,5.72772354 L16.1387791,5.72772354 C16.4049907,5.72772354 16.6201744,5.51277161 16.6201744,5.24780849 C16.6201744,4.98284538 16.4049907,4.76789345 16.1387791,4.76789345" id="Fill-404"></path>
                    </g>
                </g>
            </g>
        </g>
    </g>
</svg>