<?xml version="1.0" encoding="UTF-8"?>
<svg width="25px" height="17px" viewBox="0 0 25 17" version="1.1" xmlns="http://www.w3.org/2000/svg" xmlns:xlink="http://www.w3.org/1999/xlink">
    <!-- Generator: Sketch 49 (51002) - http://www.bohemiancoding.com/sketch -->
    <title>Review_icon_unselected</title>
    <desc>Created with Sketch.</desc>
    <defs></defs>
    <g id="Page-1" stroke="none" stroke-width="1" fill="none" fill-rule="evenodd">
        <g id="01-Business---01-Documents" transform="translate(-1493.000000, -27.000000)" fill="#323339">
            <g id="Group-2" transform="translate(1305.000000, 15.000000)">
                <g id="Review_icon_unselected" transform="translate(180.000000, 0.000000)">
                    <path d="M32.221,20.34 C32.027,20.34 31.843,20.23 31.762,20.041 L28.892,13.34 L12.551,13.34 L9.681,20.041 C9.572,20.29 9.276,20.41 9.024,20.3 C8.77,20.19 8.653,19.9 8.762,19.641 L11.762,12.641 C11.84,12.46 12.021,12.34 12.221,12.34 L29.221,12.34 C29.421,12.34 29.602,12.46 29.681,12.641 L32.681,19.641 C32.79,19.9 32.672,20.19 32.418,20.3 C32.354,20.33 32.287,20.34 32.221,20.34" id="Fill-8406"></path>
                    <path d="M10,27.34 L32,27.34 L32,20.34 L26.57,20.34 L26.33,21.09 C25.924,22.351 24.567,23.34 23.242,23.34 L18.2,23.34 C16.874,23.34 15.519,22.351 15.115,21.09 L14.875,20.34 L10,20.34 L10,27.34 L10,27.34 Z M32.5,28.34 L9.5,28.34 C9.224,28.34 9,28.121 9,27.84 L9,19.84 C9,19.561 9.224,19.34 9.5,19.34 L15.241,19.34 C15.458,19.34 15.651,19.48 15.717,19.69 L16.067,20.78 C16.337,21.63 17.314,22.34 18.2,22.34 L23.242,22.34 C24.128,22.34 25.106,21.63 25.378,20.78 L25.729,19.69 C25.796,19.48 25.988,19.34 26.206,19.34 L32.5,19.34 C32.776,19.34 33,19.561 33,19.84 L33,27.84 C33,28.121 32.776,28.34 32.5,28.34 L32.5,28.34 Z" id="Fill-8407"></path>
                </g>
            </g>
        </g>
    </g>
</svg>