<?xml version="1.0" encoding="UTF-8"?>
<svg width="24px" height="17px" viewBox="0 0 24 17" version="1.1" xmlns="http://www.w3.org/2000/svg" xmlns:xlink="http://www.w3.org/1999/xlink">
    <!-- Generator: Sketch 49 (51002) - http://www.bohemiancoding.com/sketch -->
    <title>Group</title>
    <desc>Created with Sketch.</desc>
    <defs></defs>
    <g id="Page-1" stroke="none" stroke-width="1" fill="none" fill-rule="evenodd">
        <g id="00-Search---02" transform="translate(-791.000000, -333.000000)" fill="#657786">
            <g id="Group-2" transform="translate(761.000000, 333.000000)">
                <g id="Group" transform="translate(30.000000, 0.000000)">
                    <path d="M20,7.341 L9,7.341 C8.724,7.341 8.5,7.12 8.5,6.841 C8.5,6.56 8.724,6.34 9,6.34 L20,6.34 C20.276,6.34 20.5,6.56 20.5,6.841 C20.5,7.12 20.276,7.341 20,7.341" id="Fill-1357"></path>
                    <path d="M17.721,10.81 C17.636,10.81 17.55,10.79 17.472,10.74 C17.232,10.6 17.15,10.3 17.288,10.06 L19.144,6.841 L17.288,3.62 C17.15,3.381 17.232,3.08 17.472,2.94 C17.712,2.8 18.017,2.881 18.154,3.121 L20.154,6.591 C20.244,6.75 20.244,6.94 20.154,7.09 L18.154,10.561 C18.062,10.72 17.894,10.81 17.721,10.81" id="Fill-1358"></path>
                    <path d="M15,10.341 L4,10.341 C3.724,10.341 3.5,10.12 3.5,9.841 C3.5,9.56 3.724,9.34 4,9.34 L15,9.34 C15.276,9.34 15.5,9.56 15.5,9.841 C15.5,10.12 15.276,10.341 15,10.341" id="Fill-1359"></path>
                    <path d="M5.722,13.81 C5.549,13.81 5.38,13.72 5.288,13.561 L3.288,10.09 C3.199,9.94 3.199,9.75 3.288,9.591 L5.288,6.121 C5.426,5.881 5.73,5.8 5.971,5.94 C6.21,6.08 6.293,6.381 6.154,6.62 L4.298,9.841 L6.154,13.06 C6.293,13.3 6.21,13.6 5.971,13.74 C5.892,13.79 5.806,13.81 5.722,13.81" id="Fill-1360"></path>
                    <path d="M1,15.34 L23,15.34 L23,1.34 L1,1.34 L1,15.34 Z M23.5,16.341 L0.5,16.341 C0.224,16.341 0,16.12 0,15.841 L0,0.841 C0,0.56 0.224,0.34 0.5,0.34 L23.5,0.34 C23.776,0.34 24,0.56 24,0.841 L24,15.841 C24,16.12 23.776,16.341 23.5,16.341 L23.5,16.341 Z" id="Fill-1361"></path>
                </g>
            </g>
        </g>
    </g>
</svg>